# 3ds Max Wavefront OBJ Exporter v0.97b - (c)2007 guruware
# File Created: 15.04.2019 03:19:48

mtllib shiels.mtl

#
# object Cylinder001
#

v  -10.5663 0.8831 72.1503
v  -14.2134 0.8363 78.7846
v  -29.8202 2.9945 67.3990
v  -40.3216 4.7017 69.2821
v  -45.5160 10.9988 56.2712
v  -61.6051 21.5113 51.4230
v  -55.7608 23.1660 46.4388
v  -14.2134 60.6249 78.7846
v  -31.3151 3.3683 72.5601
v  -40.3216 62.3049 69.2821
v  -48.2911 10.5572 60.3966
v  -61.6051 65.1701 51.4230
v  -69.1488 68.6528 38.3570
v  -69.1488 34.5437 38.3570
v  -75.4970 41.5238 27.3617
v  -75.4970 71.5835 27.3617
v  -78.2112 72.9201 11.9688
v  -78.2112 44.0355 11.9688
v  -14.2134 119.5133 78.7846
v  -40.3216 116.9628 69.2821
v  -61.6051 115.8282 51.4230
v  -69.1488 116.4494 38.3570
v  -75.4970 116.9723 27.3617
v  -78.2112 117.8608 11.9688
v  -14.2134 177.4238 78.7846
v  -40.3216 170.8155 69.2821
v  -61.6051 166.5772 51.4230
v  -69.1488 167.1768 38.3570
v  -75.4970 167.6815 27.3617
v  -78.2112 171.0330 11.9688
v  -10.5663 176.7216 72.1503
v  -29.8202 171.7339 67.3990
v  -45.5160 168.1279 58.4695
v  -55.7608 165.7066 46.4388
v  -70.8682 166.3109 24.7254
v  -71.0757 166.4589 24.1826
v  -80.3216 118.9608 -0.0000
v  -75.9321 171.7402 11.4806
v  -55.7608 115.5294 46.4388
v  -70.8682 116.4732 24.7254
v  -45.5160 115.3482 58.4695
v  -29.8202 116.6889 67.3990
v  -10.5663 119.3899 72.1503
v  -0.3216 0.5027 73.0093
v  -0.3216 0.3948 80.4476
v  -0.3216 60.1953 80.4476
v  -0.3216 120.8934 80.4476
v  -0.3216 181.2905 80.4476
v  -0.3216 179.5036 73.0093
v  -0.3216 121.1114 73.0093
v  -76.1053 43.3721 11.0277
v  -64.2542 36.0991 34.2314
v  -70.8682 42.3369 24.7254
v  -70.8682 66.0153 24.7254
v  -80.3216 73.6730 -0.0000
v  -55.7608 59.9054 46.4388
v  -45.5160 56.6203 58.4695
v  -29.8202 54.6145 67.3990
v  -10.5663 54.1298 72.1503
v  -0.3216 54.4036 73.0093
v  -80.3216 57.6403 -0.0000
v  -80.3216 118.5517 -0.0000
v  -78.3479 171.4732 11.1932
v  -80.3216 164.1982 -0.0000
v  9.9232 0.8831 72.1503
v  29.1770 2.9945 67.3990
v  13.5703 0.8363 78.7846
v  44.8729 10.9988 56.2712
v  39.6784 4.7017 69.2821
v  55.1176 23.1660 46.4388
v  60.9620 21.5113 51.4230
v  30.6720 3.3683 72.5601
v  13.5703 60.6249 78.7846
v  47.6480 10.5572 60.3966
v  39.6784 62.3049 69.2821
v  68.5057 34.5437 38.3570
v  68.5057 68.6528 38.3570
v  60.9620 65.1701 51.4230
v  74.8539 41.5238 27.3617
v  77.5680 44.0355 11.9688
v  77.5680 72.9201 11.9688
v  74.8539 71.5835 27.3617
v  39.6784 116.9628 69.2821
v  13.5703 119.5133 78.7846
v  60.9620 115.8282 51.4230
v  68.5057 116.4494 38.3570
v  77.5680 117.8608 11.9688
v  74.8539 116.9723 27.3617
v  39.6784 170.8155 69.2821
v  13.5703 177.4238 78.7846
v  60.9620 166.5772 51.4230
v  68.5057 167.1768 38.3570
v  77.5680 171.0330 11.9688
v  74.8539 167.6815 27.3617
v  29.1770 171.7339 67.3990
v  9.9232 176.7216 72.1503
v  44.8729 168.1279 58.4695
v  55.1176 165.7066 46.4388
v  70.2250 166.3109 24.7254
v  70.4325 166.4589 24.1826
v  75.2890 171.7402 11.4806
v  79.6785 118.9608 -0.0000
v  70.2250 116.4732 24.7254
v  55.1176 115.5294 46.4388
v  44.8729 115.3482 58.4695
v  29.1770 116.6889 67.3990
v  9.9232 119.3899 72.1503
v  75.4622 43.3721 11.0277
v  63.6111 36.0991 34.2314
v  70.2250 42.3369 24.7254
v  79.6785 73.6730 -0.0000
v  70.2250 66.0153 24.7254
v  55.1176 59.9054 46.4388
v  44.8729 56.6203 58.4695
v  29.1770 54.6145 67.3990
v  9.9232 54.1298 72.1503
v  79.6785 57.6403 -0.0000
v  79.6785 118.5517 -0.0000
v  79.6785 164.1982 -0.0000
v  77.7048 171.4732 11.1932
# 120 vertices

vn 0.0657 -0.7218 -0.6890
vn -0.2156 -0.6984 0.6825
vn 0.1147 -0.7650 -0.6337
vn -0.5587 -0.6927 0.4562
vn 0.1483 -0.6095 -0.7788
vn -0.7884 -0.5888 0.1781
vn 0.2632 -0.4961 -0.8274
vn -0.2320 0.0000 0.9727
vn -0.3390 -0.6725 0.6579
vn -0.5050 -0.0075 0.8631
vn -0.7217 -0.6534 0.2285
vn -0.7660 0.0000 0.6428
vn -0.8660 0.0000 0.5000
vn -0.8145 -0.5800 -0.0143
vn -0.7819 -0.6197 0.0674
vn -0.9397 0.0000 0.3420
vn -0.9848 0.0000 0.1736
vn -0.7344 -0.3962 -0.5510
vn -0.5000 0.0000 0.8660
vn -0.3280 0.7127 0.6200
vn -0.4613 0.6934 0.5535
vn -0.5766 0.6853 0.4448
vn -0.5591 0.7483 0.3571
vn -0.6192 0.7288 0.2924
vn -0.7993 0.4635 0.3825
vn -0.0509 0.6302 -0.7747
vn 0.1273 0.6402 -0.7576
vn 0.3782 0.6666 -0.6424
vn 0.5801 0.6516 -0.4887
vn 0.7439 0.6004 -0.2934
vn 0.8296 0.5325 -0.1680
vn 0.9341 0.0000 -0.3571
vn 0.5378 0.8262 -0.1680
vn 0.7921 0.0000 -0.6105
vn 0.8840 0.0000 -0.4676
vn 0.6376 -0.0000 -0.7704
vn 0.3705 0.0000 -0.9288
vn 0.1621 -0.0000 -0.9868
vn 0.0000 -0.7291 -0.6844
vn 0.0000 -0.6945 0.7195
vn 0.0000 0.0000 1.0000
vn 0.0000 0.8045 0.5940
vn 0.0000 0.6910 -0.7228
vn -0.0000 0.0000 -1.0000
vn 0.7181 0.6317 -0.2919
vn -0.7770 -0.3060 0.5501
vn -0.1553 -0.9711 -0.1811
vn -0.7623 -0.6472 0.0020
vn 0.6036 -0.6015 -0.5233
vn 0.8840 -0.0000 -0.4676
vn -0.2666 -0.0000 -0.9638
vn 0.6384 0.0188 -0.7695
vn 0.0000 0.0000 -1.0000
vn -0.2640 -0.1433 -0.9538
vn -0.6423 0.7663 0.0112
vn -0.2567 0.2678 -0.9287
vn -0.0657 -0.7218 -0.6890
vn -0.1147 -0.7650 -0.6337
vn 0.2156 -0.6984 0.6825
vn -0.1483 -0.6095 -0.7788
vn 0.5587 -0.6927 0.4562
vn -0.2632 -0.4961 -0.8274
vn 0.7884 -0.5888 0.1781
vn 0.3390 -0.6725 0.6579
vn 0.2320 -0.0000 0.9727
vn 0.7217 -0.6534 0.2285
vn 0.5050 -0.0075 0.8631
vn 0.8145 -0.5800 -0.0143
vn 0.8660 0.0000 0.5000
vn 0.7660 0.0000 0.6428
vn 0.7819 -0.6197 0.0674
vn 0.4180 -0.6928 0.5876
vn 0.9848 0.0000 0.1736
vn 0.9397 0.0000 0.3420
vn 0.5000 0.0000 0.8660
vn 0.2320 0.0000 0.9727
vn 0.4613 0.6934 0.5535
vn 0.3280 0.7127 0.6200
vn 0.5766 0.6853 0.4448
vn 0.5591 0.7483 0.3571
vn 0.7993 0.4635 0.3825
vn 0.6192 0.7288 0.2924
vn -0.1273 0.6402 -0.7576
vn 0.0509 0.6302 -0.7747
vn -0.3782 0.6666 -0.6424
vn -0.5801 0.6516 -0.4887
vn -0.7439 0.6004 -0.2934
vn -0.8296 0.5325 -0.1680
vn -0.5378 0.8262 -0.1680
vn -0.9341 0.0000 -0.3571
vn -0.8840 0.0000 -0.4676
vn -0.7921 0.0000 -0.6105
vn -0.6376 -0.0000 -0.7704
vn -0.3705 0.0000 -0.9288
vn -0.1621 -0.0000 -0.9868
vn -0.4406 -0.7258 -0.5283
vn 0.8686 0.4798 -0.1234
vn 0.2073 0.0511 -0.9769
vn 0.7623 -0.6472 0.0020
vn -0.6036 -0.6015 -0.5233
vn 0.2666 -0.0000 -0.9638
vn -0.8840 -0.0000 -0.4676
vn -0.6384 0.0188 -0.7695
vn 0.2640 -0.1433 -0.9538
vn 0.2567 0.2678 -0.9287
vn 0.6423 0.7663 0.0112
# 106 vertex normals

vt 0.5278 0.0000 0.5000
vt 0.5278 0.0000 1.0000
vt 0.5833 0.0000 0.5000
vt 0.5833 0.0000 1.0000
vt 0.6389 0.0000 0.5000
vt 0.6389 0.0000 1.0000
vt 0.6944 0.0000 0.5000
vt 0.5278 0.3333 1.0000
vt 0.5642 0.0000 1.0000
vt 0.5833 0.3333 1.0000
vt 0.6041 0.0000 1.0000
vt 0.6389 0.3333 1.0000
vt 0.6691 0.3333 1.0000
vt 0.6691 0.0000 1.0000
vt 0.6944 0.0000 1.0000
vt 0.6944 0.3333 1.0000
vt 0.7257 0.3333 1.0000
vt 0.7257 0.0000 1.0000
vt 0.5278 0.6667 1.0000
vt 0.5833 0.6667 1.0000
vt 0.6389 0.6667 1.0000
vt 0.6691 0.6667 1.0000
vt 0.6944 0.6667 1.0000
vt 0.7257 0.6667 1.0000
vt 0.5278 1.0000 1.0000
vt 0.5833 1.0000 1.0000
vt 0.6389 1.0000 1.0000
vt 0.6691 1.0000 1.0000
vt 0.6944 1.0000 1.0000
vt 0.7257 1.0000 1.0000
vt 0.5278 0.9931 0.5000
vt 0.5833 0.9929 0.5000
vt 0.6389 0.9923 0.5000
vt 0.6944 0.9916 0.5000
vt 0.7500 0.9903 0.5000
vt 0.7500 0.9904 0.5110
vt 0.7500 0.5616 1.0000
vt 0.7500 0.9903 0.7678
vt 0.6944 0.6425 0.5000
vt 0.7500 0.5939 0.5000
vt 0.6389 0.6581 0.5000
vt 0.5833 0.6690 0.5000
vt 0.5278 0.6693 0.5000
vt 0.5021 0.0000 0.5000
vt 0.5021 0.0000 1.0000
vt 0.5021 0.3333 1.0000
vt 0.5021 0.6667 1.0000
vt 0.5021 1.0000 1.0000
vt 0.5021 0.9933 0.5000
vt 0.5021 0.6692 0.5000
vt 0.7500 0.0000 0.7770
vt 0.7257 0.0000 0.5000
vt 0.7500 0.0000 0.5000
vt 0.7500 0.1925 0.5000
vt 0.7500 0.1963 1.0000
vt 0.6944 0.2556 0.5000
vt 0.6389 0.2861 0.5000
vt 0.5833 0.3037 0.5000
vt 0.5278 0.3007 0.5000
vt 0.5021 0.2991 0.5000
vt 0.7500 0.0880 1.0000
vt 0.7500 0.3333 1.0000
vt 0.7500 0.6667 1.0000
vt 0.7273 1.0000 1.0000
vt 0.7500 0.9104 1.0000
# 65 texture coords

o Cylinder001
g Cylinder001
usemtl wire_006135006
s 1
f 1/1/1 2/2/2 3/3/3 
f 3/3/3 4/4/4 5/5/5 
f 5/5/5 6/6/6 7/7/7 
s 2
f 2/2/2 8/8/8 9/9/9 
f 4/4/4 10/10/10 11/11/11 
f 6/6/6 12/12/12 13/13/13 14/14/14 
f 15/15/15 16/16/16 17/17/17 18/18/18 
f 8/8/8 19/19/8 20/20/19 10/10/10 
f 10/10/10 20/20/19 21/21/12 12/12/12 
f 12/12/12 21/21/12 22/22/13 13/13/13 
f 16/16/16 23/23/16 24/24/17 17/17/17 
f 19/19/8 25/25/20 26/26/21 20/20/19 
f 20/20/19 26/26/21 27/27/22 21/21/12 
f 21/21/12 27/27/22 28/28/23 22/22/13 
f 23/23/16 29/29/24 30/30/25 24/24/17 
s 1
f 25/25/20 31/31/26 32/32/27 
f 26/26/21 32/32/27 33/33/28 
f 27/27/22 33/33/28 34/34/29 
f 29/29/24 34/34/29 35/35/30 
s 4
f 36/36/31 37/37/32 38/38/33 
f 34/34/29 39/39/34 40/40/35 35/35/30 
f 33/33/28 41/41/36 39/39/34 34/34/29 
f 32/32/27 42/42/37 41/41/36 33/33/28 
f 31/31/26 43/43/38 42/42/37 32/32/27 
s 1
f 44/44/39 45/45/40 1/1/1 
s 2
f 45/45/40 46/46/41 8/8/8 2/2/2 
f 46/46/41 47/47/41 19/19/8 8/8/8 
f 47/47/41 48/48/42 25/25/20 19/19/8 
s 1
f 48/48/42 49/49/43 31/31/26 
s 4
f 49/49/43 50/50/44 43/43/38 31/31/26 
s 1
f 51/51/45 18/18/18 18/18/46 51/51/47 
f 52/52/48 14/14/14 15/15/15 53/53/49 
f 5/5/5 4/4/4 11/11/11 
f 3/3/3 2/2/2 9/9/9 
f 1/1/1 45/45/40 2/2/2 
s 4
f 37/37/32 40/40/35 54/54/50 55/55/51 
f 40/40/35 39/39/34 56/56/34 54/54/50 
f 39/39/34 41/41/36 57/57/52 56/56/34 
f 41/41/36 42/42/37 58/58/37 57/57/52 
f 42/42/37 43/43/38 59/59/38 58/58/37 
f 43/43/38 50/50/44 60/60/53 59/59/38 
f 55/55/51 51/51/45 51/51/47 61/61/54 
f 54/54/50 56/56/34 7/7/7 52/52/48 53/53/49 
f 56/56/34 57/57/52 5/5/5 7/7/7 
f 57/57/52 58/58/37 3/3/3 5/5/5 
f 58/58/37 59/59/38 1/1/1 3/3/3 
f 59/59/38 60/60/53 44/44/39 1/1/1 
s 2
f 18/18/18 17/17/17 55/62/51 61/61/54 18/18/46 
f 17/17/17 24/24/17 62/63/17 55/62/51 
f 24/24/17 30/30/25 63/64/55 64/65/56 62/63/17 
f 14/14/14 13/13/13 16/16/16 15/15/15 
f 13/13/13 22/22/13 23/23/16 16/16/16 
f 22/22/13 28/28/23 29/29/24 23/23/16 
s 1
f 14/14/14 52/52/48 7/7/7 6/6/6 
f 18/18/18 51/51/45 53/53/49 15/15/15 
f 5/5/5 11/11/11 6/6/6 
f 3/3/3 9/9/9 4/4/4 
s 2
f 11/11/11 10/10/10 12/12/12 6/6/6 
f 9/9/9 8/8/8 10/10/10 4/4/4 
s 1
f 30/30/25 36/36/31 38/38/33 63/64/55 
s 4
f 36/36/31 35/35/30 40/40/35 37/37/32 
f 55/55/51 54/54/50 51/51/45 
s 8
f 63/64/55 38/38/33 64/65/56 
s 1
f 18/18/46 61/61/54 51/51/47 
f 65/1/57 66/3/58 67/2/59 
f 66/3/58 68/5/60 69/4/61 
f 68/5/60 70/7/62 71/6/63 
s 2
f 67/2/59 72/9/64 73/8/65 
f 69/4/61 74/11/66 75/10/67 
f 71/6/63 76/14/68 77/13/69 78/12/70 
f 79/15/71 80/18/72 81/17/73 82/16/74 
f 73/8/65 75/10/67 83/20/75 84/19/76 
f 75/10/67 78/12/70 85/21/70 83/20/75 
f 78/12/70 77/13/69 86/22/69 85/21/70 
f 82/16/74 81/17/73 87/24/73 88/23/74 
f 84/19/76 83/20/75 89/26/77 90/25/78 
f 83/20/75 85/21/70 91/27/79 89/26/77 
f 85/21/70 86/22/69 92/28/80 91/27/79 
f 88/23/74 87/24/73 93/30/81 94/29/82 
s 1
f 90/25/78 95/32/83 96/31/84 
f 89/26/77 97/33/85 95/32/83 
f 91/27/79 98/34/86 97/33/85 
f 94/29/82 99/35/87 98/34/86 
s 4
f 100/36/88 101/38/89 102/37/90 
f 98/34/86 99/35/87 103/40/91 104/39/92 
f 97/33/85 98/34/86 104/39/92 105/41/93 
f 95/32/83 97/33/85 105/41/93 106/42/94 
f 96/31/84 95/32/83 106/42/94 107/43/95 
s 1
f 44/44/39 65/1/57 45/45/40 
s 2
f 45/45/40 67/2/59 73/8/65 46/46/41 
f 46/46/41 73/8/65 84/19/76 47/47/41 
f 47/47/41 84/19/76 90/25/78 48/48/42 
s 1
f 48/48/42 96/31/84 49/49/43 
s 4
f 49/49/43 96/31/84 107/43/95 50/50/44 
s 1
f 108/51/96 108/51/97 80/18/98 80/18/72 
f 109/52/99 110/53/100 79/15/71 76/14/68 
f 68/5/60 74/11/66 69/4/61 
f 66/3/58 72/9/64 67/2/59 
f 65/1/57 67/2/59 45/45/40 
s 4
f 102/37/90 111/55/101 112/54/102 103/40/91 
f 103/40/91 112/54/102 113/56/92 104/39/92 
f 104/39/92 113/56/92 114/57/103 105/41/93 
f 105/41/93 114/57/103 115/58/94 106/42/94 
f 106/42/94 115/58/94 116/59/95 107/43/95 
f 107/43/95 116/59/95 60/60/53 50/50/44 
f 111/55/101 117/61/104 108/51/97 108/51/96 
f 112/54/102 110/53/100 109/52/99 70/7/62 113/56/92 
f 113/56/92 70/7/62 68/5/60 114/57/103 
f 114/57/103 68/5/60 66/3/58 115/58/94 
f 115/58/94 66/3/58 65/1/57 116/59/95 
f 116/59/95 65/1/57 44/44/39 60/60/53 
s 2
f 80/18/72 80/18/98 117/61/104 111/62/101 81/17/73 
f 81/17/73 111/62/101 118/63/73 87/24/73 
f 87/24/73 118/63/73 119/65/105 120/64/106 93/30/81 
f 76/14/68 79/15/71 82/16/74 77/13/69 
f 77/13/69 82/16/74 88/23/74 86/22/69 
f 86/22/69 88/23/74 94/29/82 92/28/80 
s 1
f 76/14/68 71/6/63 70/7/62 109/52/99 
f 80/18/72 79/15/71 110/53/100 108/51/96 
f 68/5/60 71/6/63 74/11/66 
f 66/3/58 69/4/61 72/9/64 
s 2
f 74/11/66 71/6/63 78/12/70 75/10/67 
f 72/9/64 69/4/61 75/10/67 73/8/65 
s 1
f 93/30/81 120/64/106 101/38/89 100/36/88 
s 4
f 99/35/87 100/36/88 102/37/90 103/40/91 
f 111/55/101 108/51/96 112/54/102 
s 8
f 119/65/105 101/38/89 120/64/106 
s 1
f 80/18/98 108/51/97 117/61/104 
f 26/26/21 25/25/20 32/32/27 
f 25/25/20 48/48/42 31/31/26 
f 33/33/28 27/27/22 26/26/21 
f 34/34/29 28/28/23 27/27/22 
f 30/30/25 29/29/24 35/35/30 36/36/31 
f 96/31/84 48/48/42 90/25/78 
f 90/25/78 89/26/77 95/32/83 
f 89/26/77 91/27/79 97/33/85 
f 91/27/79 92/28/80 94/29/82 98/34/86 
f 94/29/82 93/30/81 100/36/88 99/35/87 
s 4
f 37/37/32 64/65/56 38/38/33 
f 101/38/89 119/65/105 102/37/90 
f 108/51/96 110/53/100 112/54/102 
f 54/54/50 53/53/49 51/51/45 
s 1
f 34/34/29 29/29/24 28/28/23 
# 91 polygons - 52 triangles

